<svg xmlns="http://www.w3.org/2000/svg" style="display:none"><symbol id="magnifier" viewBox="0 0 485.213 485.213"><title>magnifier</title><path d="M471.882,407.567L360.567,296.243c-16.586,25.795-38.536,47.734-64.331,64.321l111.324,111.324 c17.772,17.768,46.587,17.768,64.321,0C489.654,454.149,489.654,425.334,471.882,407.567z"/><path d="M363.909,181.955C363.909,81.473,282.44,0,181.956,0C81.474,0,0.001,81.473,0.001,181.955s81.473,181.951,181.955,181.951 C282.44,363.906,363.909,282.437,363.909,181.955z M181.956,318.416c-75.252,0-136.465-61.208-136.465-136.46 c0-75.252,61.213-136.465,136.465-136.465c75.25,0,136.468,61.213,136.468,136.465 C318.424,257.208,257.206,318.416,181.956,318.416z"/><path d="M75.817,181.955h30.322c0-41.803,34.014-75.814,75.816-75.814V75.816C123.438,75.816,75.817,123.437,75.817,181.955z"/></symbol><symbol id="user-silhouette" viewBox="0 0 409.165 409.164"><title>user-silhouette</title><path d="M204.583,216.671c50.664,0,91.74-48.075,91.74-107.378c0-82.237-41.074-107.377-91.74-107.377 c-50.668,0-91.74,25.14-91.74,107.377C112.844,168.596,153.916,216.671,204.583,216.671z"/><path d="M407.164,374.717L360.88,270.454c-2.117-4.771-5.836-8.728-10.465-11.138l-71.83-37.392 c-1.584-0.823-3.502-0.663-4.926,0.415c-20.316,15.366-44.203,23.488-69.076,23.488c-24.877,0-48.762-8.122-69.078-23.488 c-1.428-1.078-3.346-1.238-4.93-0.415L58.75,259.316c-4.631,2.41-8.346,6.365-10.465,11.138L2.001,374.717 c-3.191,7.188-2.537,15.412,1.75,22.005c4.285,6.592,11.537,10.526,19.4,10.526h362.861c7.863,0,15.117-3.936,19.402-10.527 C409.699,390.129,410.355,381.902,407.164,374.717z"/></symbol><symbol id="bars-graphic" viewBox="0 0 121.805 121.805"><title>bars-graphic</title><path d="M121.805,109.623V21.926c0-2.692-2.181-4.873-4.871-4.873H92.572c-2.691,0-4.871,2.181-4.871,4.873v87.697 c0,2.693,2.18,4.873,4.871,4.873h24.361C119.624,114.496,121.805,112.316,121.805,109.623z"/><path d="M46.287,114.496h26.797c2.691,0,4.872-2.18,4.872-4.873V12.181c0-2.692-2.181-4.872-4.872-4.872H46.287 c-2.692,0-4.873,2.18-4.873,4.872v97.442C41.414,112.316,43.594,114.496,46.287,114.496z"/><path d="M4.872,46.286C2.18,46.286,0,48.466,0,51.158v58.465c0,2.693,2.18,4.873,4.872,4.873h24.361 c2.692,0,4.872-2.18,4.872-4.873V51.158c0-2.692-2.18-4.872-4.872-4.872H4.872z"/></symbol><symbol id="shopping-online" viewBox="0 0 512 512"><title>shopping-online</title><path d="M472,318.112V46H40v272.112l-40,100V466h512v-47.889L472,318.112z M141,161h50.109l26.104-60.909l27.574,11.817 L223.748,161h64.504l-21.039-49.091l27.574-11.817L320.891,161H371v30h-18.289l-20,80H179.289l-20-80H141V161z M301,426h-90v-30 h90V426z M53.156,366l12-30h381.689l12,30H53.156z"/></symbol><symbol id="vr" viewBox="0 0 512 512"><title>vr</title><path d="M186.054,45.714c-19.315,0.065-37.176,10.273-47.036,26.883c15.962-6.334,32.979-9.593,50.152-9.606H322.83 c17.172,0.013,34.188,3.272,50.15,9.605c-9.859-16.609-27.719-26.816-47.034-26.882H186.054z"/><path d="M115.429,81.339c8.733-31.812,37.636-53.875,70.625-53.911h139.893c32.992,0.036,61.896,22.103,70.625,53.92 l17.364,63.638c15.243,1.375,29.972,6.206,43.068,14.125l-19.566-71.487C423.294,35.963,376.394,0.105,322.83,0H189.17 C135.609,0.104,88.71,35.958,74.562,87.616l-19.565,71.493c13.095-7.922,27.825-12.754,43.068-14.129L115.429,81.339z"/><path d="M448,274.286c18.922-0.013,37.265,6.528,51.91,18.511l-14.16-65.145c-9.737-44.037-53.002-72.119-97.188-63.08 L276.509,187.92c-13.525,2.839-27.493,2.839-41.018,0l-112.053-23.348c-44.191-9.05-87.466,19.041-97.188,63.089l-14.158,65.136 C26.736,280.813,45.078,274.273,64,274.286H448z"/><path d="M448,292.571H64c-35.328,0.043-63.957,28.672-64,64V448c0.043,35.329,28.672,63.957,64,64h384 c35.329-0.043,63.957-28.671,64-64v-91.429C511.957,321.243,483.329,292.614,448,292.571z M75.794,313.509 c0.874-0.827,1.898-1.479,3.018-1.92c1.667-0.733,3.521-0.927,5.304-0.554c0.571,0.105,1.125,0.291,1.643,0.554 c0.562,0.18,1.088,0.458,1.554,0.821c0.525,0.315,1.016,0.683,1.465,1.099c1.685,1.743,2.634,4.067,2.651,6.491 c-0.015,1.194-0.263,2.374-0.732,3.473c-0.832,2.296-2.641,4.105-4.937,4.937c-1.099,0.469-2.279,0.718-3.474,0.733 c-2.424-0.017-4.748-0.967-6.491-2.651c-0.803-0.912-1.482-1.927-2.018-3.018c-0.437-1.105-0.653-2.285-0.634-3.474 C73.174,317.579,74.122,315.26,75.794,313.509z M21.023,381.263c-3.547-3.547-3.573-9.29-0.058-12.87l27.429-27.429 c3.579-3.515,9.322-3.489,12.87,0.058c3.547,3.547,3.573,9.29,0.058,12.87l-27.429,27.429 C30.313,384.836,24.57,384.81,21.023,381.263z M143.607,326.464L43.035,427.035c-3.579,3.515-9.322,3.489-12.87-0.058 c-3.547-3.547-3.573-9.29-0.058-12.87l100.571-100.571c3.579-3.515,9.322-3.489,12.87,0.058 C147.096,317.142,147.122,322.885,143.607,326.464z"/></symbol><symbol id="selfie-stick" viewBox="0 0 512 512"><title>selfie-stick</title><path d="M461.913,33.391h-83.478V16.696C378.435,7.473,370.956,0,361.739,0H150.261c-9.217,0-16.696,7.473-16.696,16.696v16.696 H50.087C22.468,33.391,0,55.859,0,83.478v166.957c0,27.619,22.468,50.087,50.087,50.087h83.478v16.696 c0,9.223,7.479,16.696,16.696,16.696h16.696V384c0,9.223,7.479,16.696,16.696,16.696h16.696v94.609 c0,9.223,7.479,16.696,16.696,16.696h77.913c9.217,0,16.696-7.473,16.696-16.696v-94.609h16.696 c9.217,0,16.696-7.473,16.696-16.696v-50.087h16.696c9.217,0,16.696-7.473,16.696-16.696v-16.696h83.478 c27.619,0,50.087-22.468,50.087-50.087V83.478C512,55.859,489.532,33.391,461.913,33.391z M311.652,367.304 c-56.133,0-54.97,0-111.304,0v-33.391h111.304V367.304z M411.826,267.13h-36.468c-6.915-19.391-25.275-33.391-47.01-33.391 H183.652c-21.737,0-40.095,14-47.01,33.391h-36.468V66.783h36.468c6.915,19.391,25.275,33.391,47.01,33.391h144.696 c21.737,0,40.095-14,47.01-33.391h36.468V267.13z"/></symbol><symbol id="facebook-logo-button" viewBox="0 0 49.652 49.652"><title>facebook-logo-button</title><path d="M24.826,0C11.137,0,0,11.137,0,24.826c0,13.688,11.137,24.826,24.826,24.826c13.688,0,24.826-11.138,24.826-24.826 C49.652,11.137,38.516,0,24.826,0z M31,25.7h-4.039c0,6.453,0,14.396,0,14.396h-5.985c0,0,0-7.866,0-14.396h-2.845v-5.088h2.845 v-3.291c0-2.357,1.12-6.04,6.04-6.04l4.435,0.017v4.939c0,0-2.695,0-3.219,0c-0.524,0-1.269,0.262-1.269,1.386v2.99h4.56L31,25.7z"/></symbol><symbol id="instagram-logo" viewBox="0 0 49.652 49.652"><title>instagram-logo</title><path d="M24.825,29.796c2.739,0,4.972-2.229,4.972-4.97c0-1.082-0.354-2.081-0.94-2.897c-0.903-1.252-2.371-2.073-4.029-2.073 c-1.659,0-3.126,0.82-4.031,2.072c-0.588,0.816-0.939,1.815-0.94,2.897C19.854,27.566,22.085,29.796,24.825,29.796z"/><polygon points="35.678 18.746 35.678 14.58 35.678 13.96 35.055 13.962 30.891 13.975 30.907 18.762"/><path d="M24.826,0C11.137,0,0,11.137,0,24.826c0,13.688,11.137,24.826,24.826,24.826c13.688,0,24.826-11.138,24.826-24.826 C49.652,11.137,38.516,0,24.826,0z M38.945,21.929v11.56c0,3.011-2.448,5.458-5.457,5.458H16.164 c-3.01,0-5.457-2.447-5.457-5.458v-11.56v-5.764c0-3.01,2.447-5.457,5.457-5.457h17.323c3.01,0,5.458,2.447,5.458,5.457V21.929z"/><path d="M32.549,24.826c0,4.257-3.464,7.723-7.723,7.723c-4.259,0-7.722-3.466-7.722-7.723c0-1.024,0.204-2.003,0.568-2.897 h-4.215v11.56c0,1.494,1.213,2.704,2.706,2.704h17.323c1.491,0,2.706-1.21,2.706-2.704v-11.56h-4.217 C32.342,22.823,32.549,23.802,32.549,24.826z"/></symbol><symbol id="twitter-logo-button" viewBox="0 0 49.652 49.652"><title>twitter-logo-button</title><path d="M24.826,0C11.137,0,0,11.137,0,24.826c0,13.688,11.137,24.826,24.826,24.826c13.688,0,24.826-11.138,24.826-24.826 C49.652,11.137,38.516,0,24.826,0z M35.901,19.144c0.011,0.246,0.017,0.494,0.017,0.742c0,7.551-5.746,16.255-16.259,16.255 c-3.227,0-6.231-0.943-8.759-2.565c0.447,0.053,0.902,0.08,1.363,0.08c2.678,0,5.141-0.914,7.097-2.446 c-2.5-0.046-4.611-1.698-5.338-3.969c0.348,0.066,0.707,0.103,1.074,0.103c0.521,0,1.027-0.068,1.506-0.199 c-2.614-0.524-4.583-2.833-4.583-5.603c0-0.024,0-0.049,0.001-0.072c0.77,0.427,1.651,0.685,2.587,0.714 c-1.532-1.023-2.541-2.773-2.541-4.755c0-1.048,0.281-2.03,0.773-2.874c2.817,3.458,7.029,5.732,11.777,5.972 c-0.098-0.419-0.147-0.854-0.147-1.303c0-3.155,2.558-5.714,5.713-5.714c1.644,0,3.127,0.694,4.171,1.804 c1.303-0.256,2.523-0.73,3.63-1.387c-0.43,1.335-1.333,2.454-2.516,3.162c1.157-0.138,2.261-0.444,3.282-0.899 C37.987,17.334,37.018,18.341,35.901,19.144z"/></symbol><symbol id="gopro" viewBox="0 0 512 512"><title>gopro</title><g><g><path d="M366.9,136.55c-37.6,0-68.3,30.6-68.3,68.3s30.6,68.3,68.3,68.3c37.7,0,68.3-30.6,68.3-68.3S404.6,136.55,366.9,136.55z M364.5,168.25c-1.6,1.5-3.8,2.5-6.1,2.5c-2.3,0-4.4-0.9-6.1-2.5c-0.8-0.9-1.4-1.8-1.8-2.8c-0.4-1-0.7-2.1-0.7-3.2 c0-1.1,0.3-2.2,0.7-3.2s1-2,1.8-2.8c3.2-3.2,8.9-3.2,12.1,0c1.5,1.6,2.5,3.8,2.5,6.1C366.9,164.45,366,166.65,364.5,168.25z M407.1,236.55c-1.6,1.5-3.8,2.5-6.1,2.5c-0.5,0-1.1-0.1-1.6-0.2c-0.6-0.1-1.1-0.3-1.6-0.5s-1-0.4-1.5-0.8c-0.4-0.3-0.9-0.7-1.3-1 c-1.5-1.6-2.5-3.8-2.5-6.1c0-2.3,0.9-4.4,2.5-6.1c0.4-0.3,0.9-0.7,1.3-1c0.5-0.3,1-0.6,1.5-0.8c0.5-0.3,1-0.4,1.6-0.5 c2.7-0.6,5.7,0.3,7.7,2.3c1.5,1.6,2.5,3.8,2.5,6.1C409.6,232.75,408.7,234.85,407.1,236.55z M409.6,204.85c-4.7,0-8.5-3.8-8.5-8.5 c0-13.9-7.8-25.6-17.1-25.6c-4.7,0-8.5-3.8-8.5-8.5c0-4.7,3.8-8.5,8.5-8.5c18.8,0,34.1,19.1,34.1,42.7 C418.1,201.05,414.3,204.85,409.6,204.85z"/></g></g><g><g><path d="M366.9,85.35c-65.9,0-119.5,53.6-119.5,119.5s53.6,119.5,119.5,119.5s119.5-53.6,119.5-119.5S432.8,85.35,366.9,85.35z M366.9,290.15c-47.1,0-85.3-38.3-85.3-85.3s38.3-85.3,85.3-85.3s85.3,38.3,85.3,85.3S414,290.15,366.9,290.15z"/></g></g><g><g><path d="M290.1,34.15h-33c-23.3,0-44.5,13.5-54.6,34.1h-6.2c-4.7,0-8.5,3.8-8.5,8.5c-0.1,4.8,3.8,8.6,8.5,8.6H214l2.1-5.6 c6.3-17.1,22.8-28.6,41-28.6h33c4.7,0,8.5-3.8,8.5-8.5C298.6,37.95,294.8,34.15,290.1,34.15z"/></g></g><g><g><path d="M476.8,59.75H257.1c-2.4,0-4.8,0.2-7,0.7c-0.8,0.2-1.5,0.5-2.3,0.7c-1.5,0.4-2.9,0.8-4.3,1.3c-0.9,0.4-1.6,0.9-2.4,1.3 c-1.2,0.6-2.4,1.2-3.5,1.9c-0.8,0.5-1.5,1.2-2.3,1.8c-1,0.8-2,1.5-2.9,2.4c-0.7,0.7-1.3,1.5-2,2.3c-0.8,0.9-1.6,1.8-2.3,2.8 c-0.6,0.8-1,1.8-1.5,2.7c-0.6,1.1-1.3,2.1-1.7,3.2c-0.4,1-0.7,2-1,3c-0.4,1.2-0.8,2.3-1.1,3.5c-0.2,1-0.3,2.1-0.4,3.2 c-0.1,1.1-0.4,2.1-0.4,3.2h-51.2v-34h-68.3v34.1H94v-34.1H25.6v34.1H8.5H0v384h477.9v-128c18.9-0.6,34.1-16.1,34.1-35.1V95.05 C512,75.55,496.2,59.75,476.8,59.75z M119.5,76.85h34.1v17.1h-34.1V76.85z M42.7,76.85h34.1v17.1H42.7V76.85z M128,435.25 c-37.6,0-68.3-30.6-68.3-68.3c0-37.6,30.6-68.3,68.3-68.3c37.6,0,68.3,30.6,68.3,68.3C196.3,404.65,165.6,435.25,128,435.25z M196.3,249.35c0,17.8-14.5,32.3-32.3,32.3H83.5c-17.8,0-32.3-14.5-32.3-32.3v-80.5c0-17.8,14.5-32.3,32.3-32.3H164 c17.8,0,32.3,14.5,32.3,32.3V249.35z M234.7,435.25c-16.5,0-29.9-13.4-29.9-29.9s13.4-29.9,29.9-29.9s29.9,13.4,29.9,29.9 C264.5,421.85,251.1,435.25,234.7,435.25z M495,314.65h-0.1c0,10-8.1,18.2-18.2,18.2H257.1c-10,0-18.2-8.1-18.2-18.2v-203.7v-15.9 c0-10,8.1-18.2,18.2-18.2h219.7c10,0,18.2,8.1,18.2,18.2V314.65z"/></g></g><g><g><path d="M234.7,392.55c-7.1,0-12.8,5.7-12.8,12.8s5.7,12.8,12.8,12.8c7.1,0,12.8-5.7,12.8-12.8S241.7,392.55,234.7,392.55z"/></g></g><g><g><path d="M164,153.65H83.5c-8.4,0-15.2,6.8-15.2,15.2v80.5c0,8.4,6.8,15.2,15.2,15.2H164c8.4,0,15.2-6.8,15.2-15.2v-80.5 C179.2,160.45,172.4,153.65,164,153.65z"/></g></g><g><g><path d="M136.5,316.55v24.8c0,4.7-3.8,8.5-8.5,8.5s-8.5-3.8-8.5-8.5v-24.8c-24.2,4.1-42.7,25.1-42.7,50.4 c0,28.2,23,51.2,51.2,51.2s51.2-23,51.2-51.2C179.2,341.65,160.7,320.65,136.5,316.55z M162.1,358.45c0,18.8-15.3,34.1-34.1,34.1 s-34.1-15.3-34.1-34.1v-8.5c0-4.7,3.8-8.5,8.5-8.5c4.7,0,8.5,3.8,8.5,8.5v8.5c0,9.4,7.7,17.1,17.1,17.1s17.1-7.7,17.1-17.1v-8.5 c0-4.7,3.8-8.5,8.5-8.5c4.7,0,8.5,3.8,8.5,8.5V358.45z"/></g></g></symbol><symbol id="apple-watch" viewBox="0 0 512 512"><title>apple-watch</title><g><g><polygon points="356.609 40.39 141.048 40.39 140.142 63.572 357.515 63.572"/></g></g><g><g><polygon points="140.189 449.616 141.048 471.61 356.609 471.61 357.468 449.616"/></g></g><g><g><path d="M355.563,13.617C355.266,6.012,349.015,0,341.404,0H156.253c-7.611,0-13.862,6.012-14.159,13.617l-0.308,7.88h214.085 L355.563,13.617z"/></g></g><g><g><path d="M141.786,490.503l0.308,7.88c0.297,7.605,6.548,13.617,14.159,13.617h185.151c7.611,0,13.862-6.012,14.159-13.617 l0.308-7.88H141.786z"/></g></g><g><g><path d="M395.249,127.528c-0.264,0-0.522,0.025-0.782,0.039c-3.601-22.264-22.95-39.322-46.214-39.322H149.404 c-25.818,0-46.823,21.005-46.823,46.823v241.864c0,25.818,21.005,46.823,46.823,46.823h198.849 c25.818,0,46.823-21.005,46.823-46.823V202.146c0.058,0.001,0.115,0.009,0.173,0.009c7.826,0,14.17-6.344,14.17-14.17v-46.288 C409.419,133.872,403.075,127.528,395.249,127.528z M288.149,155.479c18.18,0,32.97,14.79,32.97,32.97s-14.79,32.97-32.97,32.97 s-32.97-14.79-32.97-32.97C255.179,170.269,269.97,155.479,288.149,155.479z M281.798,256c0,18.18-14.79,32.97-32.97,32.97 s-32.97-14.79-32.97-32.97s14.79-32.97,32.97-32.97S281.798,237.82,281.798,256z M249.301,125.638 c7.813,0,14.17,6.357,14.17,14.17s-6.357,14.17-14.17,14.17c-7.813,0-14.17-6.357-14.17-14.17 C235.131,131.995,241.488,125.638,249.301,125.638z M209.179,155.479c18.179,0,32.97,14.79,32.97,32.97s-14.79,32.97-32.97,32.97 s-32.97-14.79-32.97-32.97C176.208,170.269,190.999,155.479,209.179,155.479z M136.887,256c0-18.18,14.79-32.97,32.97-32.97 c18.179,0,32.97,14.79,32.97,32.97s-14.79,32.97-32.97,32.97C151.678,288.97,136.887,274.18,136.887,256z M209.179,356.521 c-18.18,0-32.97-14.79-32.97-32.97s14.79-32.97,32.97-32.97c18.179,0,32.97,14.79,32.97,32.97 C242.148,341.731,227.358,356.521,209.179,356.521z M249.301,386.362c-7.813,0-14.17-6.357-14.17-14.17 c0-7.813,6.357-14.17,14.17-14.17c7.813,0,14.17,6.357,14.17,14.17C263.47,380.005,257.114,386.362,249.301,386.362z M288.149,356.521c-18.18,0-32.97-14.79-32.97-32.97s14.79-32.97,32.97-32.97s32.97,14.79,32.97,32.97 S306.329,356.521,288.149,356.521z M327.799,288.97c-18.179,0-32.97-14.79-32.97-32.97s14.79-32.97,32.97-32.97 s32.97,14.79,32.97,32.97S345.979,288.97,327.799,288.97z"/></g></g></symbol><symbol id="delivery" viewBox="0 0 136 164"><title>delivery</title><g fill="#FFF"><path d="M93.133 38.767c8.121 0 14.945-5.542 16.9-13.049l5.467.814a2.159 2.159 0 0 0 2.451-1.816 2.157 2.157 0 0 0-1.816-2.451l-5.541-.825c.002-.046.004-.091.004-.138 0-.182-.006-.362-.014-.542 0 0-.451-6.518-1.074-9.237-.621-2.719-2.535-3.296-2.535-3.296-9.77-2.212-19.772-2.438-22.375-2.438s-3.158 1.332-3.158 1.332l-3.15 4.996-.01-.003c-.076.122-.146.245-.219.368l-.027.043a17.387 17.387 0 0 0-2.367 8.777c-.001 9.646 7.819 17.465 17.464 17.465zM131.535 78.076v-.002l-26.742-2.168-9.246-21.112s-.461-2.774-6.008-8.476c-5.549-5.702-16.799-3.39-16.799-3.39s-23.886 4.469-31.745 6.318c-7.86 1.85-8.168 9.863-8.168 9.863l-.632 4.519-15.178-2.941a3.012 3.012 0 0 0-3.516 2.374L6.09 101.303a3.008 3.008 0 0 0 2.375 3.516l51.196 9.923c.115.022.23.024.346.033h.002c-.728.104-1.291-.035-1.291-.035l-9.4-1.849-3.082 17.105-23.56 20.363a7.43 7.43 0 1 0 9.857 11.086s27.725-22.05 29.575-23.591c1.85-1.54 2.773-3.853 2.773-3.853s4.541-13.948 5.779-16.874c.848-2.004 4.932-1.079 4.932-1.079l22.885 8.631 7.615 29.062c.082.63.242 1.234.473 1.804h.002a7.428 7.428 0 0 0 14.112-4.512c-.842-4.965-4.604-27.046-5.561-31.826-1.078-5.394-4.621-6.934-4.621-6.934s-21.268-11.558-22.654-12.329c-1.387-.77-1.078-2.774-1.078-2.774l3.93-14.331 2.773 5.856s1.619 3.274 4.084 3.391l33.357.82a7.43 7.43 0 0 0 7.43-7.431 7.43 7.43 0 0 0-6.804-7.399zM60.104 62.807l-1.789 5.88 9.898 1.919-20.214-3.917.548-2.496 11.557-1.386zm-2.249 45.473l-45.304-8.781 6.27-32.353 12.542 2.431-1.618 11.567-.64 4.406c-.005.026-.008.056-.012.082l-.018.127h.002a7.43 7.43 0 0 0 7.367 8.38 7.428 7.428 0 0 0 7.368-8.366l2.901-13.223 17.413 3.374-6.271 32.356zM25.05 17.008h38.027c1.1 0 2-.896 2-1.99 0-1.094-.9-1.99-2-1.99H25.05c-1.1 0-2 .896-2 1.99 0 1.094.9 1.99 2 1.99zM38.08 23.025c-1.1 0-2 .896-2 1.99 0 1.094.9 1.99 2 1.99h22.959c1.1 0 2-.896 2-1.99a2 2 0 0 0-2-1.99H38.08z"/></g><path fill="#3A3A3A" d="M87.098 32.732c8.121 0 14.945-5.542 16.9-13.049l5.467.814a2.159 2.159 0 0 0 2.451-1.816 2.157 2.157 0 0 0-1.816-2.451l-5.541-.825c.002-.046.004-.091.004-.138 0-.182-.006-.362-.014-.542 0 0-.451-6.518-1.074-9.237-.621-2.719-2.535-3.296-2.535-3.296C91.17-.02 81.168-.246 78.564-.246s-3.158 1.332-3.158 1.332l-3.15 4.996-.01-.003c-.076.121-.146.245-.219.368L72 6.49a17.387 17.387 0 0 0-2.367 8.777c0 9.646 7.82 17.465 17.465 17.465zM125.5 72.041v-.002l-26.742-2.168-9.246-21.112s-.461-2.774-6.008-8.476c-5.549-5.702-16.799-3.39-16.799-3.39S42.819 41.362 34.96 43.21c-7.86 1.85-8.168 9.863-8.168 9.863L23.71 75.109l-.64 4.406c-.005.026-.008.056-.012.082l-.018.127h.002a7.43 7.43 0 0 0 7.367 8.38 7.428 7.428 0 0 0 7.368-8.366l4.734-21.581 11.557-1.386-1.789 5.88 9.898 1.919a3.01 3.01 0 0 1 2.375 3.517L57.14 106.33a3.012 3.012 0 0 1-2.948 2.43c-.072 0-.146-.016-.22-.021-.728.104-1.291-.035-1.291-.035l-9.4-1.849-3.082 17.105-23.56 20.363a7.43 7.43 0 1 0 9.857 11.086s27.725-22.05 29.575-23.591c1.85-1.54 2.773-3.853 2.773-3.853s4.541-13.948 5.779-16.874c.848-2.004 4.932-1.079 4.932-1.079l22.885 8.631 7.615 29.062c.082.63.242 1.234.473 1.804h.002a7.428 7.428 0 0 0 14.112-4.512c-.842-4.965-4.604-27.046-5.561-31.826-1.078-5.394-4.621-6.934-4.621-6.934S83.193 94.682 81.807 93.91c-1.387-.77-1.078-2.774-1.078-2.774l3.93-14.331 2.773 5.856s1.619 3.274 4.084 3.391l33.357.82a7.43 7.43 0 0 0 .627-14.831z"/><path fill="#F0C42E" d="M53.971 108.739h.002c.073.006.147.021.22.021 1.407 0 2.671-1 2.948-2.43l7.412-38.243a3.01 3.01 0 0 0-2.375-3.517l-20.214-3.917-1.286 5.862 17.413 3.374-6.271 32.354-45.304-8.779 6.27-32.353 12.542 2.431.832-5.95-15.178-2.942a3.012 3.012 0 0 0-3.516 2.374L.055 95.268a3.008 3.008 0 0 0 2.375 3.516l51.196 9.923c.114.022.229.023.345.032z"/><path fill="#F0C52E" d="M59.042 8.982a2 2 0 0 1-2 1.99H19.015c-1.1 0-2-.896-2-1.99 0-1.094.9-1.99 2-1.99h38.027c1.1.001 2 .896 2 1.99zM57.004 18.98c0 1.094-.9 1.99-2 1.99h-22.96c-1.1 0-2-.896-2-1.99a2 2 0 0 1 2-1.99h22.959c1.101 0 2.001.896 2.001 1.99z"/></symbol><symbol id="drone" viewBox="0 0 512.853 512.853"><title>drone</title><g><g><circle cx="256" cy="414.293" r="17.067"/></g></g><g><g><path d="M503.467,47.36H460.8V32.853c0-11.093-8.533-19.627-19.627-19.627h-11.947c-11.093,0-19.627,8.533-19.627,19.627V47.36 h-42.667c-5.12,0-8.533,3.413-8.533,8.533s3.413,8.533,8.533,8.533H409.6v14.507c0,10.24,7.68,17.92,17.067,19.627v27.307 c-10.24,3.413-17.067,12.8-17.067,23.893v29.867l-51.2,38.4v-7.68c0-10.24-7.68-17.92-17.92-17.92H281.6V149.76 c0-5.12-3.413-8.533-8.533-8.533c-5.12,0-8.533,3.413-8.533,8.533v42.667h-17.067v-25.6c0-5.12-3.413-8.533-8.533-8.533 s-8.533,3.413-8.533,8.533v25.6h-58.88c-10.24,0-17.92,7.68-17.92,17.92v7.68l-51.2-38.4V149.76 c0-11.093-6.827-20.48-17.067-23.893V98.56c9.387-0.853,17.067-9.387,17.067-19.627V64.427h42.667c5.12,0,8.533-3.413,8.533-8.533 s-3.413-8.533-8.533-8.533H102.4V32.853c0-11.093-8.533-19.627-19.627-19.627H70.827c-11.093,0-19.627,8.533-19.627,19.627V47.36 H8.533C3.413,47.36,0,50.773,0,55.893s3.413,8.533,8.533,8.533H51.2v14.507c0,10.24,7.68,17.92,17.067,19.627v27.307 c-10.24,3.413-17.067,12.8-17.067,23.893v136.533c0,14.507,11.093,25.6,25.6,25.6s25.6-11.093,25.6-25.6v-32.427l43.52,37.547 c-31.573,20.48-65.707,90.453-69.12,148.48H128c4.267-63.147,55.467-110.933,76.8-110.933h17.067v17.067h-18.773 c-8.533,0-15.36,6.827-15.36,15.36v106.667c0,8.533,6.827,15.36,15.36,15.36H309.76c8.533,0,15.36-6.827,15.36-15.36V361.387 c0-8.533-6.827-15.36-15.36-15.36h-19.627V328.96H307.2c21.333,0,71.68,47.787,76.8,110.933h51.2 c-3.413-58.027-36.693-128-68.267-148.48l43.52-37.547v32.427c0,14.507,11.093,25.6,25.6,25.6s25.6-11.093,25.6-25.6V149.76 c0-11.093-6.827-20.48-17.067-23.893V98.56c9.387-0.853,17.067-9.387,17.067-19.627V64.427h42.667c5.12,0,8.533-3.413,8.533-8.533 C512,50.773,508.587,47.36,503.467,47.36z M68.267,32.853c0-1.707,0.853-2.56,2.56-2.56h11.947c1.707,0,2.56,0.853,2.56,2.56 V47.36H68.267V32.853z M82.773,81.493H70.827c-1.707,0-2.56-0.853-2.56-2.56V64.427h17.067v14.507 C85.333,80.64,84.48,81.493,82.773,81.493z M153.6,276.053l-51.2-44.373v-30.72l51.2,38.4V276.053z M221.867,235.093h68.267 c5.12,0,8.533,3.413,8.533,8.533s-3.413,8.533-8.533,8.533h-68.267c-5.12,0-8.533-3.413-8.533-8.533 S216.747,235.093,221.867,235.093z M256,448.427c-18.773,0-34.133-15.36-34.133-34.133c0-18.773,15.36-34.133,34.133-34.133 c18.773,0,34.133,15.36,34.133,34.133C290.133,433.067,274.773,448.427,256,448.427z M238.933,346.027V328.96h34.133v17.067 H238.933z M315.733,286.293H196.267c-5.12,0-8.533-3.413-8.533-8.533s3.413-8.533,8.533-8.533h119.467 c5.12,0,8.533,3.413,8.533,8.533S320.853,286.293,315.733,286.293z M409.6,230.827L358.4,275.2v-36.693l51.2-38.4V230.827z M443.733,78.933c0,1.707-0.853,2.56-2.56,2.56h-11.947c-1.707,0-2.56-0.853-2.56-2.56V64.427h17.067V78.933z M443.733,47.36 h-17.067V32.853c0-1.707,0.853-2.56,2.56-2.56h11.947c1.707,0,2.56,0.853,2.56,2.56V47.36z"/></g></g><g><g><path d="M384,456.96V480c0,11.093,8.533,19.627,19.627,19.627h11.947c11.093,0,19.627-8.533,19.627-19.627v-23.04H384z"/></g></g><g><g><path d="M76.8,456.96V480c0,11.093,8.533,19.627,19.627,19.627h11.947c11.093,0,19.627-8.533,19.627-19.627v-23.04H76.8z"/></g></g></symbol><symbol id="fitness-bracelet" viewBox="0 0 474.474 474.474"><title>fitness-bracelet</title><path d="M336.566,103.862V10c0-5.523-4.478-10-10-10H147.909c-5.522,0-10,4.477-10,10v93.862 c-19.477,2.857-34.479,19.671-34.479,39.928v186.891c0,20.257,15.003,37.071,34.479,39.929v93.863c0,5.523,4.478,10,10,10h178.657 c5.522,0,10-4.477,10-10V370.61c19.476-2.857,34.479-19.671,34.479-39.928V143.791C371.044,123.534,356.042,106.72,336.566,103.862 z M316.566,20v83.429H157.909V20H316.566z M157.909,454.474v-83.43h158.657v83.43H157.909z M351.044,330.682 c0,11.228-9.135,20.362-20.362,20.362H143.792c-11.228,0-20.362-9.134-20.362-20.362V143.791c0-11.228,9.135-20.362,20.362-20.362 h186.891c11.228,0,20.362,9.134,20.362,20.362V330.682z"/><path d="M326.565,137.909H147.91c-5.522,0-10,4.477-10,10v178.655c0,5.523,4.478,10,10,10h178.655c5.522,0,10-4.477,10-10V147.909 C336.565,142.386,332.087,137.909,326.565,137.909z M316.565,316.563H157.91V157.909h158.655V316.563z"/><path d="M172.982,247.236h23.508c4.053,0,7.704-2.445,9.247-6.192l8.297-20.151l11.754,75.86c0.712,4.6,4.505,8.1,9.146,8.442 c0.248,0.018,0.495,0.027,0.74,0.027c4.35,0,8.24-2.829,9.546-7.037l20.161-64.966l3.41,7.956c1.576,3.677,5.191,6.061,9.191,6.061 h21.941c5.522,0,10-4.477,10-10s-4.478-10-10-10h-15.348l-11.507-26.85c-1.649-3.852-5.533-6.265-9.711-6.047 c-4.185,0.218-7.789,3.021-9.031,7.022l-15.396,49.607l-10.62-68.548c-0.687-4.435-4.244-7.868-8.7-8.399 c-4.455-0.525-8.72,1.973-10.429,6.123l-19.391,47.092h-16.811c-5.522,0-10,4.477-10,10S167.459,247.236,172.982,247.236z"/></symbol><symbol id="credit" viewBox="0 0 156 188"><title>credit</title><g fill="#FFF"><circle cx="141.25" cy="68.877" r="14.75"/><path d="M89.113 139.544l-7.074 17.875-22.824 14.917a7.16 7.16 0 0 0-3.634 6.23 7.167 7.167 0 0 0 7.167 7.167 7.121 7.121 0 0 0 4.121-1.31c3.761-2.371 22.351-14.084 25.495-15.88 3.5-2 4.125-5.125 4.125-5.125l4.875-16-5.75-2.625c-5.75-2.625-6.501-5.249-6.501-5.249z"/><path d="M139.321 141.462s-1.158-3.834-4.579-5.167-18.087-7.75-18.087-7.75l15.416-25.584s3.834-9-.333-13.417-13.75-9.75-13.75-9.75h-7.521l15.799-26.801c3.354-5.686 1.443-13.081-4.242-16.432L72.633 7.447c-5.686-3.352-13.079-1.442-16.431 4.244L9.144 91.519c-3.351 5.685-1.442 13.08 4.244 16.432l49.39 29.113c5.686 3.352 13.081 1.441 16.432-4.242l22.934-38.903h8.096l-14.75 26.209s-5.134 9.214-.334 14.25c4.209 4.416 12.667 6.916 12.667 6.916l17.25 6.501 5.101 31.291.009-.001c.549 3.413 3.499 6.023 7.067 6.023a7.166 7.166 0 0 0 7.166-7.167c0-.189-.014-.375-.028-.56l.028-.004-5.095-35.915zM17.958 100.198c-1.401-.826-1.887-2.708-1.061-4.108l47.059-79.829c.826-1.401 2.707-1.888 4.107-1.062l11.521 6.792-50.104 84.998-11.522-6.791zm53.498 28.054c-.826 1.4-2.707 1.887-4.107 1.061l-30.116-17.754L87.34 26.563l30.113 17.753c1.402.826 1.887 2.707 1.062 4.107l-18.493 31.372h-8.783L71.323 94.222a7.155 7.155 0 0 0-1.23.891l-.031.022.002.003a7.142 7.142 0 0 0-2.358 5.304 7.167 7.167 0 0 0 7.167 7.167 7.121 7.121 0 0 0 4.149-1.331l.002.003.071-.058c.182-.133.356-.273.524-.423l9.66-7.784-17.823 30.236z"/></g><path fill="#F0C42E" d="M49.219 5.943L2.161 85.772c-3.351 5.685-1.442 13.08 4.244 16.432l49.39 29.113c5.686 3.352 13.081 1.441 16.432-4.242l47.057-79.829c3.354-5.686 1.443-13.081-4.242-16.432L65.65 1.7C59.965-1.652 52.571.258 49.219 5.943zm-39.305 84.4l47.059-79.829c.826-1.401 2.707-1.888 4.107-1.062l11.521 6.792-50.105 84.998-11.522-6.791c-1.4-.826-1.886-2.708-1.06-4.108zm101.617-47.667l-47.059 79.829c-.826 1.4-2.707 1.887-4.107 1.061l-30.116-17.754 50.106-84.996 30.113 17.753c1.403.825 1.887 2.706 1.063 4.107z"/><g fill="#3A3A3A"><circle cx="135.25" cy="63.083" r="14.75"/><path d="M81.875 133.75l-7.074 17.875-22.825 14.917a7.16 7.16 0 0 0-3.634 6.23 7.167 7.167 0 0 0 7.167 7.167 7.121 7.121 0 0 0 4.121-1.31c3.761-2.371 22.351-14.084 25.495-15.88 3.5-2 4.125-5.125 4.125-5.125l4.875-16-5.75-2.625c-5.75-2.625-6.5-5.249-6.5-5.249zM132.083 135.668s-1.158-3.834-4.579-5.167-18.087-7.75-18.087-7.75l15.416-25.584s3.834-9-.333-13.417S110.75 74 110.75 74H84L64.085 88.427a7.208 7.208 0 0 0-1.23.891l-.031.022.002.003a7.14 7.14 0 0 0-2.358 5.303 7.167 7.167 0 0 0 7.167 7.167 7.121 7.121 0 0 0 4.149-1.331l.002.003.071-.058c.182-.133.357-.273.525-.423l14.743-11.881H103l-14.75 26.209s-5.134 9.214-.334 14.25c4.209 4.416 12.667 6.916 12.667 6.916l17.25 6.501 5.101 31.291.009-.001c.549 3.413 3.499 6.023 7.067 6.023a7.166 7.166 0 0 0 7.166-7.167c0-.189-.014-.375-.028-.56l.028-.004-5.093-35.913z"/></g></symbol><symbol id="warranty" viewBox="0 0 171 195"><title>warranty</title><g fill="#FFF"><path d="M77.694 174.636c-.104-.13-10.495-12.996-12.609-15.76-1.321-1.727-3.307-2.678-5.593-2.678-2.56 0-4.836 1.17-5.512 1.553l-5.486 2.743c-1.773-.479-5.587-1.95-9.28-6.268-3.284-3.839-3.261-8.986-3.086-11.099l5.893-5.893c3.093-2.717 2.452-6.516 1.246-8.431l-.219-.311s-12.862-16.221-14.666-18.498c-.989-1.249-2.475-1.938-4.184-1.938-2.849 0-5.879 1.975-6.756 2.592-10.885 7.749-11.586 14.562-11.631 15.313l-.024.414.074.409c6.412 35.726 26.026 51.137 35.453 58.543 1.148.901 2.14 1.681 2.854 2.306C50.731 193.38 57.93 194 60.721 194c2.375-.001 4.48-.405 6.089-1.171 4.366-2.078 9.425-8.01 10.872-9.778 2.501-3.059 1.283-6.599.168-8.208l-.156-.207zm-13.893 11.873c-.499.237-1.57.491-3.081.491-1.56 0-7.032-.334-11.944-4.632-.854-.747-1.913-1.579-3.139-2.543-8.694-6.83-26.729-21.001-32.78-53.684.289-.979 1.829-4.938 8.62-9.771a11.385 11.385 0 0 1 2.119-1.142l13.502 17.03-7.528 7.527-.203 1.055c-.081.422-1.911 10.409 4.527 17.937 6.286 7.349 13.25 8.667 14.583 8.856l1.082.154 7.644-3.823.218-.118c.281-.167 1.335-.648 2.071-.648.036 0 .065.001.088.003 2.149 2.8 11.105 13.897 12.5 15.624a.03.03 0 0 0 .004.01c-2.562 3.095-6.173 6.669-8.283 7.674zM137.85 65.824c5.512-5.177 7.156-11.975 5.033-20.783a2.502 2.502 0 0 0-4.103-1.272l-8.221 7.403c-1.438-.795-3.676-2.451-4.465-5.33l6.803-6.729a2.502 2.502 0 0 0 .104-3.446l-.186-.207a2.473 2.473 0 0 0-.678-.533c-.16-.086-3.988-2.116-8.824-2.116-4.709 0-8.859 1.921-12.002 5.556-6 6.938-4.557 15.042-3.543 18.471l-3.488 3.488-10.284-9.236 4.717-3.266L78.671 34.1 68.07 44.703l13.724 20.041 3.266-4.717 9.237 10.282-3.295 3.294c-1.5-.478-3.883-1.052-6.663-1.052-5.429 0-10.236 2.174-13.962 6.359-.271.329-6.599 8.165-2.751 18.621a2.501 2.501 0 0 0 3.993 1.019l8.295-7.259c1.323.567 3.622 2.08 4.659 5.925l-7.384 7.516a2.498 2.498 0 0 0 1.218 4.187c.11.025 2.724.623 6.175.623 6.84 0 12.112-2.271 15.245-6.567 3.363-4.613 4.094-9.433 3.994-13.088l16.217 16.217.172.158c1.521 1.26 4.318 2.725 7.451 2.725 2.227 0 4.625-.741 6.852-2.824l5.518-5.516.102-.104c5.012-5.358 2.258-11.698.1-14.302l-16.945-16.959c1.027.106 2.148.181 3.322.181 4.888-.001 8.669-1.225 11.24-3.639zM84.551 51.978l-2.734 3.949-7.276-10.625 4.731-4.732 10.625 7.276-3.95 2.734 14.792 13.286-4.094 4.093 1.191-1.192-13.285-14.789zm13.562 33.524c.109.313 2.615 7.746-2.328 14.527-2.77 3.798-7.748 4.526-11.4 4.512l4.703-4.787c.566-.576.82-1.391.68-2.187-1.791-10.147-9.745-11.484-10.083-11.536a2.513 2.513 0 0 0-2.027.589l-6.204 5.428c-.522-5.56 2.413-9.489 2.759-9.932 2.721-3.03 6.127-4.566 10.125-4.566 3.515 0 6.231 1.211 6.249 1.22a2.501 2.501 0 0 0 2.818-.501l19-19a2.493 2.493 0 0 0 .527-2.756c-.035-.083-3.494-8.34 2.158-14.876 2.195-2.539 4.961-3.826 8.221-3.826 1.23 0 2.383.183 3.365.421l-5.047 4.993a2.5 2.5 0 0 0-.725 2.08c1.012 8.3 8.969 11.077 9.307 11.191a2.503 2.503 0 0 0 2.473-.511l6.049-5.447c.373 4.864-1.02 8.554-4.309 11.642-2.008 1.887-5.359 2.283-7.818 2.283-3.689 0-6.951-.865-6.982-.873a2.502 2.502 0 0 0-2.43.653l-18.5 18.667a2.521 2.521 0 0 0-.581 2.592zm5.502 1.842v0zm-.181-1.121zm33.091 10.856l-5.479 5.476c-3.248 2.98-6.9.432-7.576-.087l-18.643-18.645 14.941-15.075-2.035 2.053 18.707 18.706c.46.592 3.097 4.287.085 7.572zm-15.209-28.054zm-.843-.143l.066.012a4.19 4.19 0 0 1-.066-.012z"/><path d="M104.162 6.002c-36.408 0-65.922 29.514-65.922 65.922 0 33.517 25.02 61.172 57.398 65.354v26.224s57.439-21.243 71.969-73.622c.078-.283.139-.538.211-.812.113-.424.225-.85.33-1.277.064-.263.119-.514.178-.769a66.07 66.07 0 0 0 1.758-15.098c0-36.408-29.514-65.922-65.922-65.922zm57.348 79.422l-.006.027-.006.027-.029.13c-.039.17-.076.339-.119.515-.094.376-.191.751-.301 1.161l-.104.4a9.602 9.602 0 0 1-.082.324c-5.564 20.056-18.52 37.7-38.506 52.442-7.373 5.438-14.408 9.464-19.719 12.175V131.123l-6.104-.788c-29.243-3.777-51.295-28.889-51.295-58.412 0-32.49 26.432-58.922 58.922-58.922 32.488 0 58.922 26.432 58.922 58.922a59.082 59.082 0 0 1-1.573 13.501z"/></g><path fill="#3A3A3A" d="M54.583 187.998c-2.791 0-9.989-.62-16.554-6.364-.714-.625-1.706-1.404-2.854-2.306-9.426-7.406-29.041-22.817-35.453-58.543l-.074-.409.024-.414c.044-.752.746-7.564 11.631-15.313.877-.617 3.907-2.592 6.756-2.592 1.708 0 3.194.688 4.184 1.938 1.804 2.277 14.666 18.498 14.666 18.498l.219.311c1.206 1.915 1.847 5.714-1.246 8.431l-5.893 5.893c-.175 2.112-.198 7.26 3.086 11.099 3.692 4.317 7.507 5.789 9.28 6.268l5.486-2.743c.676-.383 2.952-1.553 5.512-1.553 2.286 0 4.272.951 5.593 2.678 2.114 2.764 12.504 15.63 12.609 15.76l.155.207c1.115 1.609 2.333 5.149-.168 8.208-1.447 1.769-6.505 7.7-10.872 9.778-1.607.763-3.712 1.167-6.087 1.168zM6.72 120.14c6.051 32.683 24.086 46.854 32.78 53.684 1.226.964 2.285 1.796 3.139 2.543 4.912 4.298 10.384 4.632 11.944 4.632 1.511 0 2.582-.254 3.081-.491 2.11-1.005 5.722-4.579 8.284-7.674l-.004-.01C64.55 171.097 55.593 160 53.444 157.2a1.063 1.063 0 0 0-.088-.003c-.736 0-1.79.481-2.071.648l-.218.118-7.644 3.823-1.082-.154c-1.333-.189-8.297-1.508-14.583-8.856-6.438-7.527-4.608-17.515-4.527-17.937l.203-1.055 7.528-7.527-13.502-17.03c-.611.237-1.467.688-2.119 1.142-6.793 4.833-8.333 8.792-8.621 9.771z"/><path fill="#F0C42E" d="M78.443 103.54c-3.452 0-6.065-.598-6.175-.623a2.5 2.5 0 0 1-1.218-4.187l7.384-7.516c-1.037-3.845-3.336-5.357-4.659-5.925l-8.295 7.259a2.503 2.503 0 0 1-3.993-1.018c-3.848-10.457 2.48-18.293 2.751-18.622 3.726-4.185 8.533-6.359 13.962-6.359 2.78 0 5.162.574 6.663 1.052l16.766-16.765c-1.013-3.43-2.457-11.534 3.543-18.471 3.143-3.634 7.293-5.556 12.002-5.556 4.837 0 8.664 2.029 8.825 2.116.255.137.484.317.677.533l.186.207c.89.993.845 2.508-.104 3.446l-6.803 6.729c.789 2.879 3.028 4.535 4.465 5.33l8.222-7.403a2.5 2.5 0 0 1 4.103 1.272c2.123 8.809.478 15.606-5.033 20.783-2.57 2.414-6.353 3.638-11.242 3.638-2.789 0-5.324-.407-6.839-.714L97.127 79.399c.729 3.181 1.631 10.62-3.439 17.574-3.133 4.296-8.405 6.567-15.245 6.567zm-.196-5.001c3.651.015 8.631-.714 11.4-4.512 4.944-6.781 2.438-14.214 2.329-14.527a2.518 2.518 0 0 1 .582-2.593l18.5-18.667a2.501 2.501 0 0 1 2.43-.653c.03.008 3.293.873 6.982.873 2.458 0 5.811-.396 7.818-2.283 3.288-3.088 4.681-6.778 4.309-11.642l-6.049 5.447a2.505 2.505 0 0 1-2.473.511c-.338-.114-8.295-2.891-9.307-11.191a2.496 2.496 0 0 1 .724-2.08l5.047-4.993a14.37 14.37 0 0 0-3.365-.421c-3.259 0-6.024 1.288-8.221 3.826-5.651 6.536-2.192 14.793-2.157 14.876.405.94.196 2.033-.528 2.756l-19 19a2.5 2.5 0 0 1-2.817.501c-.018-.008-2.735-1.22-6.25-1.22-3.998 0-7.404 1.536-10.125 4.566-.347.442-3.282 4.372-2.759 9.932l6.204-5.428a2.506 2.506 0 0 1 2.027-.589c.337.052 8.291 1.389 10.082 11.536a2.498 2.498 0 0 1-.679 2.187l-4.704 4.788z"/><g fill="#3A3A3A"><path d="M78.921 54.025l9.237 10.282 3.54-3.541-13.285-14.79-2.735 3.949-7.276-10.624 4.732-4.732 10.625 7.276-3.95 2.734L94.6 57.865l3.541-3.541-10.283-9.236 4.717-3.266-20.042-13.724-10.601 10.603 13.724 20.041zM117.147 63.28a37.19 37.19 0 0 1-3.517-.534l-2.034 2.053 18.706 18.706c.46.592 3.097 4.287.084 7.572l-5.478 5.476c-3.248 2.98-6.901.432-7.576-.087L98.69 77.821l-1.563 1.578c.245 1.07.505 2.63.555 4.485l16.217 16.218.173.158c1.521 1.26 4.318 2.725 7.45 2.725 2.228 0 4.625-.741 6.853-2.824l5.518-5.516.102-.103c5.012-5.358 2.257-11.699.099-14.303L117.147 63.28z"/></g><path fill="#3A3A3A" d="M98.023 7c32.489 0 58.922 26.432 58.922 58.922 0 4.508-.529 9.05-1.573 13.5l-.006.027-.007.027-.029.13c-.038.17-.076.339-.118.515-.094.376-.191.751-.302 1.161l-.103.4c-.026.108-.054.216-.083.324-5.564 20.056-18.52 37.7-38.506 52.442-7.373 5.438-14.408 9.464-19.719 12.175V125.121l-6.104-.788c-29.243-3.777-51.294-28.889-51.294-58.412C39.102 33.432 65.534 7 98.023 7m0-7C61.616 0 32.102 29.514 32.102 65.922c0 33.517 25.02 61.172 57.398 65.354V157.5s57.439-21.243 71.97-73.622c.078-.283.138-.538.21-.812.114-.424.225-.85.331-1.277.063-.263.119-.514.177-.769a66.014 66.014 0 0 0 1.758-15.098C163.945 29.514 134.432 0 98.023 0z"/></symbol></svg>